<mxfile host="app.diagrams.net" agent="Mozilla/5.0 (Macintosh; Intel Mac OS X 10_15_7) AppleWebKit/537.36 (KHTML, like Gecko) Chrome/131.0.0.0 Safari/537.36" version="24.8.6">
  <diagram name="第 1 页" id="QTkkHvJWZICJcR5H2nK-">
    <mxGraphModel dx="969" dy="810" grid="0" gridSize="10" guides="1" tooltips="1" connect="1" arrows="1" fold="1" page="0" pageScale="1" pageWidth="827" pageHeight="1169" math="0" shadow="0">
      <root>
        <mxCell id="0" />
        <mxCell id="1" parent="0" />
        <mxCell id="KxVFyn4vsA8M0ODOvc14-1" value="" style="rounded=0;whiteSpace=wrap;html=1;" parent="1" vertex="1">
          <mxGeometry x="11" y="354" width="120" height="60" as="geometry" />
        </mxCell>
        <mxCell id="0WGWHlu3eO4Ofw49VGwp-6" value="" style="edgeStyle=none;curved=1;rounded=0;orthogonalLoop=1;jettySize=auto;html=1;fontSize=12;startSize=8;endSize=8;" edge="1" parent="1" source="0WGWHlu3eO4Ofw49VGwp-2" target="0WGWHlu3eO4Ofw49VGwp-5">
          <mxGeometry relative="1" as="geometry" />
        </mxCell>
        <mxCell id="0WGWHlu3eO4Ofw49VGwp-2" value="量化交易策略" style="text;strokeColor=none;fillColor=none;html=1;align=center;verticalAlign=middle;whiteSpace=wrap;rounded=0;fontSize=16;" vertex="1" parent="1">
          <mxGeometry x="14.5" y="369" width="107" height="30" as="geometry" />
        </mxCell>
        <mxCell id="0WGWHlu3eO4Ofw49VGwp-3" style="edgeStyle=none;curved=1;rounded=0;orthogonalLoop=1;jettySize=auto;html=1;exitX=0.75;exitY=0;exitDx=0;exitDy=0;fontSize=12;startSize=8;endSize=8;" edge="1" parent="1" source="KxVFyn4vsA8M0ODOvc14-1" target="KxVFyn4vsA8M0ODOvc14-1">
          <mxGeometry relative="1" as="geometry" />
        </mxCell>
        <mxCell id="0WGWHlu3eO4Ofw49VGwp-5" value="" style="whiteSpace=wrap;html=1;" vertex="1" parent="1">
          <mxGeometry x="-75" y="236" width="120" height="60" as="geometry" />
        </mxCell>
        <mxCell id="0WGWHlu3eO4Ofw49VGwp-9" value="價格數據" style="text;strokeColor=none;fillColor=none;html=1;align=center;verticalAlign=middle;whiteSpace=wrap;rounded=0;fontSize=16;" vertex="1" parent="1">
          <mxGeometry x="-49" y="251" width="74" height="30" as="geometry" />
        </mxCell>
        <mxCell id="0WGWHlu3eO4Ofw49VGwp-17" value="" style="edgeStyle=none;curved=1;rounded=0;orthogonalLoop=1;jettySize=auto;html=1;fontSize=12;startSize=8;endSize=8;" edge="1" parent="1" source="0WGWHlu3eO4Ofw49VGwp-12" target="0WGWHlu3eO4Ofw49VGwp-16">
          <mxGeometry relative="1" as="geometry" />
        </mxCell>
        <mxCell id="0WGWHlu3eO4Ofw49VGwp-12" value="" style="strokeWidth=2;html=1;shape=mxgraph.flowchart.annotation_2;align=left;labelPosition=right;pointerEvents=1;rotation=91;" vertex="1" parent="1">
          <mxGeometry x="48" y="388" width="50" height="100" as="geometry" />
        </mxCell>
        <mxCell id="0WGWHlu3eO4Ofw49VGwp-13" value="" style="verticalLabelPosition=bottom;verticalAlign=top;html=1;shape=mxgraph.basic.rect;fillColor2=none;strokeWidth=1;size=20;indent=5;" vertex="1" parent="1">
          <mxGeometry x="-68" y="463" width="120" height="60" as="geometry" />
        </mxCell>
        <mxCell id="0WGWHlu3eO4Ofw49VGwp-16" value="" style="strokeWidth=2;html=1;shape=mxgraph.flowchart.annotation_2;align=left;labelPosition=right;pointerEvents=1;rotation=91;" vertex="1" parent="1">
          <mxGeometry x="147" y="390" width="50" height="100" as="geometry" />
        </mxCell>
        <mxCell id="0WGWHlu3eO4Ofw49VGwp-18" value="處理數據" style="text;strokeColor=none;fillColor=none;html=1;align=center;verticalAlign=middle;whiteSpace=wrap;rounded=0;fontSize=16;" vertex="1" parent="1">
          <mxGeometry x="-46" y="478" width="81" height="30" as="geometry" />
        </mxCell>
      </root>
    </mxGraphModel>
  </diagram>
</mxfile>
